# xmcd
#
# Track frame offsets:
#	150
#	17534
#	60735
#	78762
#	99622
#	119597
#	148481
#	169671
#	181585
#	195144
#	216296
#	235435
#	251784
#
# Disc length: 3748 seconds
# Revision: 0
# Processed by: cddbd v1.5.2PL0 Copyright (c) Steve Scherf et al.
# Submitted via: dBpowerAMP V12.0
#
DISCID=b10ea20d
DTITLE=Billy Strings - Turmoil and Tinfoil
DYEAR=2017
DGENRE=Americana
TTITLE0=On the Line
TTITLE1=Meet Me at the Creek
TTITLE2=All of Tomorrow
TTITLE3=While I'm Waiting Here
TTITLE4=Living Like an Animal
TTITLE5=Turmoil and Tinfoil
TTITLE6=Salty Sheep
TTITLE7=Spinning
TTITLE8=Dealing Despair
TTITLE9=Pyramid Country
TTITLE10=Doin' Things Right
TTITLE11=These Memories of You
TTITLE12=107
EXTD=
EXTT0=
EXTT1=
EXTT2=
EXTT3=
EXTT4=
EXTT5=
EXTT6=
EXTT7=
EXTT8=
EXTT9=
EXTT10=
EXTT11=
EXTT12=
PLAYORDER=
